<?xml version="1.0" standalone="no"?>
<!DOCTYPE svg PUBLIC "-//W3C//DTD SVG 20010904//EN"
 "http://www.w3.org/TR/2001/REC-SVG-20010904/DTD/svg10.dtd">
<svg version="1.0" xmlns="http://www.w3.org/2000/svg"
 width="571.000000pt" height="571.000000pt" viewBox="0 0 571.000000 571.000000"
 preserveAspectRatio="xMidYMid meet">
<metadata>
Created by potrace 1.11, written by Peter Selinger 2001-2013
</metadata>
<g transform="translate(0.000000,571.000000) scale(0.100000,-0.100000)"
fill="#000000" stroke="none">
<path d="M2560 5683 c-70 -8 -226 -32 -277 -43 l-53 -12 -2 -160 -3 -161 -62
-18 c-46 -13 -64 -14 -71 -6 -5 7 -44 67 -86 135 -43 67 -82 122 -87 122 -34
0 -389 -156 -389 -171 0 -10 69 -275 77 -295 2 -7 -20 -28 -52 -48 l-56 -37
-44 38 c-23 21 -77 68 -118 106 -41 37 -77 67 -81 67 -13 0 -198 -146 -263
-207 l-62 -58 84 -140 85 -140 -59 -59 -59 -59 -137 72 c-75 40 -140 71 -145
69 -12 -4 -125 -148 -184 -236 l-50 -72 112 -114 c62 -62 112 -116 112 -120 0
-4 -17 -38 -37 -74 -20 -37 -37 -68 -37 -69 -1 -1 -68 14 -151 33 -82 19 -154
34 -160 34 -12 0 -80 -154 -120 -270 -13 -36 -26 -72 -30 -81 -5 -13 17 -30
105 -80 60 -35 121 -75 134 -89 l23 -25 -19 -61 -19 -62 -164 -7 -164 -7 -10
-67 c-21 -123 -30 -216 -31 -291 l0 -76 151 -39 c83 -21 152 -43 154 -49 2 -6
6 -38 10 -72 l6 -60 -153 -48 c-84 -27 -154 -49 -155 -51 -5 -3 26 -237 43
-321 l17 -84 162 0 162 0 12 -53 c6 -28 14 -61 17 -73 5 -17 -15 -34 -125
-109 -72 -48 -131 -89 -131 -91 0 -13 153 -348 165 -362 1 -1 60 13 131 33
173 47 173 47 207 -23 33 -68 33 -73 6 -98 -18 -16 -121 -137 -167 -196 -11
-14 -1 -31 75 -126 48 -60 107 -130 131 -156 l43 -47 132 76 c73 41 137 75
142 75 5 0 33 -23 62 -52 l52 -51 -39 -77 c-21 -42 -54 -103 -74 -136 -20 -32
-36 -63 -36 -69 1 -18 303 -245 326 -245 5 0 30 21 56 47 l48 47 37 -45 c81
-96 211 -223 268 -260 58 -38 189 -95 243 -105 26 -5 31 3 106 133 44 76 80
139 80 139 1 1 33 -5 73 -14 l71 -15 6 -106 c12 -200 14 -209 44 -215 79 -15
188 -27 276 -29 l99 -2 40 153 41 152 81 0 82 0 45 -147 45 -148 72 2 c67 2
309 38 319 47 2 2 6 74 9 160 l6 156 67 20 c37 11 71 20 76 20 5 0 47 -60 93
-134 l83 -134 63 23 c120 45 297 128 302 142 3 7 -11 79 -31 160 -20 80 -35
147 -33 150 14 13 122 73 128 71 5 -2 52 -43 106 -93 54 -49 105 -96 114 -102
13 -11 27 -5 87 40 39 29 109 86 157 126 l85 73 -19 32 c-10 17 -47 80 -80
140 l-62 109 57 58 57 58 138 -70 c76 -38 142 -69 146 -69 10 0 112 130 183
233 l54 78 -113 113 -112 113 37 67 c20 37 42 69 48 72 6 2 77 -11 158 -30
l147 -33 34 76 c43 94 107 265 107 285 0 8 -59 48 -134 92 l-134 77 14 56 c7
31 14 61 14 66 1 33 20 38 169 45 83 4 154 9 156 12 8 8 34 194 41 296 l7 97
-127 34 c-70 18 -133 30 -142 27 -8 -3 -12 -2 -9 4 3 6 -1 10 -9 10 -13 0 -16
15 -16 84 l0 85 148 48 147 48 -3 50 c-4 55 -26 210 -43 293 l-10 52 -102 1
c-56 1 -126 4 -156 7 l-53 7 -19 60 c-10 33 -19 65 -19 71 0 6 58 48 130 94
72 45 130 86 130 91 0 31 -153 369 -167 369 -4 0 -74 -18 -154 -39 l-146 -39
-38 64 c-43 75 -51 54 77 195 49 53 88 101 88 107 0 25 -230 312 -250 312 -6
0 -66 -31 -134 -70 -68 -38 -128 -70 -133 -70 -6 0 -33 23 -62 50 l-51 51 70
139 c39 77 70 141 70 143 0 7 -116 95 -220 166 l-104 72 -112 -112 -113 -112
-63 33 c-35 18 -66 36 -71 39 -4 4 6 69 23 144 16 76 30 146 30 156 0 14 -22
28 -87 56 -97 41 -274 107 -278 103 -2 -2 -25 -41 -52 -88 -94 -161 -107 -180
-123 -176 -8 3 -40 11 -71 20 l-56 16 -7 61 c-3 34 -6 108 -6 164 l0 102 -107
17 c-60 10 -156 20 -214 23 l-107 6 -10 -34 c-6 -19 -25 -87 -43 -151 l-31
-117 -43 -6 c-87 -14 -85 -17 -140 152 l-50 153 -30 -2 c-16 -1 -46 -3 -65 -5z
m663 -77 c54 -8 101 -17 105 -21 3 -3 9 -67 13 -143 4 -79 12 -138 18 -140 5
-2 8 -9 5 -16 -5 -14 118 -53 185 -58 35 -3 35 -2 110 125 42 70 81 127 88
127 7 0 71 -23 143 -51 100 -39 130 -55 130 -68 0 -25 -48 -241 -60 -268 -8
-20 -1 -27 98 -83 l106 -60 111 110 c61 60 115 110 120 110 11 0 163 -109 215
-153 l33 -28 -73 -141 -73 -141 84 -79 c93 -87 88 -86 182 -32 32 19 61 34 64
34 3 0 28 14 55 30 26 17 52 30 56 30 5 0 15 -12 23 -27 8 -14 47 -65 86 -112
40 -47 73 -91 73 -97 0 -6 -12 -21 -26 -35 -14 -13 -62 -63 -106 -111 l-80
-88 53 -85 c37 -62 55 -82 61 -73 6 9 7 6 3 -8 -3 -13 1 -26 10 -34 13 -11 40
-6 161 25 86 22 149 34 154 29 11 -12 107 -224 112 -248 2 -14 -27 -37 -124
-98 -83 -51 -128 -85 -128 -96 0 -9 11 -58 25 -107 34 -125 34 -125 205 -125
103 0 139 -3 143 -13 8 -22 50 -287 46 -291 -2 -1 -67 -23 -144 -47 l-140 -45
-3 -103 c-3 -114 5 -134 56 -144 23 -4 184 -47 235 -63 19 -6 19 1 -4 -194
-17 -141 -8 -130 -108 -131 -47 -1 -119 -4 -160 -8 l-75 -6 -26 -100 c-14 -55
-29 -105 -33 -112 -5 -7 39 -38 125 -88 73 -42 137 -80 141 -84 8 -8 -75 -246
-96 -275 -11 -15 -24 -14 -150 14 -76 16 -143 30 -150 30 -11 0 -117 -180
-117 -198 0 -4 47 -54 105 -112 58 -58 105 -110 105 -116 0 -6 -40 -66 -90
-133 l-90 -121 -141 71 -142 71 -78 -78 c-44 -43 -79 -82 -79 -86 0 -4 34 -67
75 -140 l75 -133 -37 -34 c-21 -18 -78 -64 -126 -102 l-89 -69 -110 103 c-60
56 -114 104 -119 106 -6 1 -36 -13 -67 -32 -31 -19 -73 -42 -92 -52 -19 -10
-36 -19 -38 -20 -1 -1 11 -67 28 -145 16 -79 30 -149 30 -155 0 -11 -203 -113
-256 -129 -19 -6 -32 8 -100 118 -91 144 -80 140 -221 100 l-93 -27 0 -157 0
-158 -107 -15 c-60 -9 -129 -19 -155 -22 l-47 -6 -30 98 c-16 54 -35 117 -42
141 -18 63 -27 67 -156 67 l-114 0 -13 -45 c-7 -25 -26 -94 -42 -153 l-29
-108 -55 6 c-30 3 -97 11 -147 17 l-93 10 -4 32 c-3 17 -8 83 -12 147 -3 64
-9 121 -13 127 -4 6 -56 23 -116 37 -86 21 -110 23 -117 13 -4 -7 -41 -71 -80
-141 -83 -146 -67 -139 -195 -86 -71 30 -71 30 -85 82 -8 32 -13 109 -13 197
0 134 2 151 29 230 16 47 66 157 111 245 45 88 326 644 625 1235 298 591 551
1081 562 1089 11 7 17 19 14 27 -10 25 5 44 28 38 14 -3 28 1 36 11 11 13 10
20 -9 46 l-22 29 40 -6 c38 -6 40 -5 47 22 4 16 3 29 -3 31 -6 2 -19 10 -29
18 -17 13 0 14 144 15 l162 0 -6 -40 -7 -40 35 0 c19 0 59 4 89 10 30 5 124
16 209 25 85 8 218 22 295 30 200 21 705 21 789 -1 90 -23 131 -54 153 -113
17 -49 17 -49 44 -35 15 7 38 36 53 66 31 61 35 148 11 219 -22 63 -104 170
-171 223 -122 95 -358 214 -586 295 -64 23 -183 68 -265 102 -81 33 -186 69
-233 79 -47 11 -114 26 -150 35 -113 27 -110 27 -110 10 0 -11 -6 -15 -17 -11
-41 12 -505 118 -723 165 -519 110 -1670 315 -1685 299 -3 -3 12 -32 34 -63
23 -32 41 -62 41 -66 0 -4 -120 -137 -266 -294 l-267 -287 -113 113 c-62 62
-110 117 -107 123 25 42 107 158 134 189 l34 39 135 -66 c74 -36 140 -66 146
-66 6 0 45 38 88 85 l77 84 -60 103 c-32 57 -67 120 -77 140 l-17 37 33 28
c18 15 71 56 118 90 l86 61 40 -31 c22 -18 77 -67 123 -109 l82 -77 97 59 c54
33 102 64 107 69 5 5 -8 68 -32 155 -23 81 -41 150 -41 154 0 12 128 78 206
108 80 30 63 42 154 -114 63 -107 96 -139 131 -128 8 3 53 16 102 31 l87 26 0
159 0 159 53 10 c88 18 180 31 217 31 l35 0 40 -127 c52 -166 54 -168 191
-168 84 0 105 3 109 15 2 8 21 77 41 153 l37 137 51 0 c28 0 95 -7 149 -14z
m-1633 -1158 c0 -4 12 -5 26 -2 15 4 25 3 22 -2 -3 -5 15 -10 41 -10 58 -2
560 -91 583 -104 10 -5 24 -7 33 -4 8 4 21 1 29 -5 7 -6 15 -8 18 -5 7 7 352
-57 356 -66 1 -3 17 -5 35 -3 27 3 29 2 12 -7 -16 -7 -13 -9 15 -5 30 5 131
-14 540 -100 14 -3 40 -7 58 -10 17 -3 32 -10 32 -15 0 -5 6 -7 14 -4 12 4
203 -33 269 -52 12 -4 17 -16 17 -45 0 -45 1 -45 -115 -28 -42 7 -75 16 -75
23 0 8 -2 8 -8 0 -5 -7 -55 -4 -167 12 -88 13 -182 26 -210 29 -107 12 -180
27 -187 38 -6 9 -8 9 -8 -1 0 -8 -8 -10 -25 -6 -13 3 -37 7 -52 9 -15 2 -57 6
-93 10 -36 4 -68 12 -71 17 -4 6 -12 8 -18 4 -13 -9 -261 24 -261 34 0 5 -9 6
-19 3 -11 -3 -52 0 -93 7 -40 6 -84 13 -98 14 -122 14 -156 19 -161 22 -3 2
-33 6 -65 9 -32 4 -120 15 -194 26 -74 11 -155 22 -180 25 -25 3 -100 13 -167
22 l-122 17 61 73 c34 39 67 72 75 72 7 0 13 8 13 18 0 17 6 17 70 9 39 -6 70
-14 70 -19z m-375 -453 c363 -32 1265 -105 1300 -105 8 0 15 -4 15 -10 0 -7
-193 -10 -558 -10 -423 0 -561 -3 -570 -12 -10 -10 0 -24 43 -68 l54 -55 -114
-204 c-63 -112 -115 -213 -115 -224 0 -15 5 -18 23 -14 89 23 1193 257 1199
255 3 -2 -318 -113 -715 -247 -397 -134 -728 -246 -734 -249 -15 -5 25 118 69
217 36 80 98 238 98 249 0 5 23 40 51 78 28 38 65 96 81 129 17 33 37 67 44
76 13 14 8 18 -43 32 -49 14 -492 87 -528 87 -12 0 -92 -169 -115 -245 -7 -22
-16 -44 -20 -50 -4 -5 -14 -32 -23 -60 -8 -27 -27 -81 -41 -119 -14 -38 -30
-107 -36 -153 -5 -46 -12 -89 -16 -95 -4 -7 -11 -123 -15 -258 -8 -242 -7
-247 22 -419 30 -175 56 -290 84 -370 8 -24 15 -55 15 -70 0 -14 8 -39 18 -56
10 -16 38 -77 62 -135 23 -58 71 -161 106 -230 l64 -125 -6 65 c-3 36 -15 139
-26 230 -16 131 -19 196 -15 320 6 139 31 393 42 410 2 3 15 71 29 151 14 80
33 165 42 190 9 24 21 63 28 87 l11 42 55 -36 c30 -21 56 -38 58 -40 2 -1 -10
-42 -27 -91 -30 -89 -76 -337 -88 -472 -6 -70 -5 -74 13 -69 17 4 201 117 893
545 277 171 262 151 -104 -142 -148 -119 -378 -303 -510 -409 -132 -105 -284
-225 -338 -266 -54 -40 -96 -78 -94 -84 2 -6 31 -20 64 -30 l61 -19 7 -81 c17
-216 78 -563 104 -589 8 -8 677 766 958 1108 180 220 195 229 61 35 -98 -141
-585 -862 -857 -1269 l-83 -123 -72 70 -71 70 -135 -78 -135 -77 -23 20 c-12
11 -59 67 -103 124 l-81 103 88 96 c142 152 134 125 72 232 -29 50 -59 94 -66
96 -7 3 -76 -11 -154 -30 -133 -34 -143 -35 -155 -18 -17 24 -114 255 -111
265 2 4 62 46 133 92 83 54 129 89 126 98 -31 112 -55 186 -63 196 -7 9 -58
13 -166 15 l-156 3 -8 35 c-13 62 -41 270 -37 274 2 2 69 25 149 49 l145 45 3
111 c2 72 -1 111 -8 111 -5 0 -10 6 -10 13 0 7 -55 28 -141 52 l-141 39 7 80
c8 99 24 218 30 224 2 2 75 7 162 11 l158 6 29 107 c16 59 26 113 23 121 -3 8
-56 44 -119 80 -164 95 -154 86 -139 137 7 24 31 85 54 137 41 92 42 93 72 87
46 -9 247 -54 270 -59 16 -5 26 5 50 50 l30 56 60 -6 c33 -3 236 -21 450 -40z
m3354 -44 c29 -16 49 -31 45 -33 -5 -3 -3 -3 5 -1 21 5 123 -65 115 -79 -4 -6
-3 -8 3 -5 5 4 23 -7 38 -23 l29 -30 -63 2 c-62 2 -63 2 -91 44 -16 23 -55 67
-87 98 -32 30 -55 56 -52 56 3 0 30 -13 58 -29z m472 -282 c16 -30 29 -70 29
-91 l0 -36 -28 26 c-59 55 -102 62 -381 62 -140 0 -252 2 -249 5 3 4 43 10 89
15 96 10 196 23 384 49 l50 6 -2 44 -2 43 41 -34 c23 -19 54 -59 69 -89z
m-2868 4 c4 -3 3 -11 -1 -18 -4 -6 0 -3 9 6 13 14 35 17 130 18 111 0 113 -1
69 -14 -25 -7 -103 -23 -175 -35 -71 -12 -133 -24 -137 -27 -5 -2 -8 3 -8 11
0 9 -4 16 -10 16 -5 0 -7 -7 -3 -16 4 -10 1 -15 -8 -13 -8 1 -21 -1 -29 -4
-22 -9 -118 -27 -141 -27 -13 0 -18 5 -14 13 4 6 0 4 -8 -5 -16 -20 -37 -24
-37 -7 0 5 -5 7 -10 4 -6 -4 -8 -11 -5 -16 4 -5 -10 -9 -29 -9 -19 0 -45 -4
-59 -9 -13 -5 -49 -12 -81 -15 -55 -6 -57 -6 -46 14 8 15 17 19 33 14 20 -6
21 -5 5 7 -17 13 -16 17 8 57 l26 43 124 -3 c68 -2 116 0 106 3 -9 4 6 7 35 6
32 0 50 -4 46 -10 -4 -7 1 -7 13 -2 10 5 51 12 89 15 39 4 77 7 86 8 9 1 19
-1 22 -5z m-127 -542 c-3 -3 -44 -26 -93 -51 -48 -25 -90 -48 -93 -51 -9 -11
-70 -40 -70 -34 0 4 -7 0 -15 -9 -8 -8 -59 -38 -113 -67 -53 -28 -112 -61
-131 -72 -19 -12 -31 -15 -27 -9 4 7 2 12 -3 12 -6 0 -11 -6 -11 -12 0 -17
-59 -50 -72 -41 -6 3 -8 2 -5 -3 3 -5 -30 -29 -72 -52 l-78 -42 20 84 c12 47
25 82 30 79 4 -3 7 3 5 13 -2 14 4 20 21 22 14 2 35 11 48 19 12 8 30 13 38 9
8 -3 15 -1 15 5 0 6 7 8 16 5 10 -4 13 -2 8 6 -5 7 -2 9 9 5 9 -3 17 -2 19 3
4 11 348 142 376 142 13 0 20 3 17 6 -3 3 27 18 67 33 51 19 77 24 85 17 7 -6
11 -13 9 -17z m-6 -546 c-7 -8 -16 -12 -21 -10 -4 3 -1 15 9 26 9 11 18 15 20
9 2 -6 -2 -17 -8 -25z m-30 -25 c0 -5 -32 -45 -71 -89 -49 -54 -77 -78 -88
-74 -11 3 -12 2 -4 -4 12 -9 -8 -33 -180 -219 -33 -36 -54 -51 -65 -47 -15 4
-15 3 -2 -6 12 -8 7 -18 -30 -55 -25 -25 -51 -46 -59 -46 -8 0 -11 -6 -7 -16
4 -11 -1 -18 -14 -21 -11 -3 -20 -10 -20 -15 0 -22 -222 -260 -232 -250 -5 5
-11 49 -14 99 l-4 91 58 48 c32 27 75 63 96 79 22 17 51 42 65 56 14 14 55 50
91 80 70 59 79 66 136 119 22 20 101 88 176 153 76 65 140 122 143 128 7 11
25 3 25 -11z m175 -589 c-14 -28 -29 -51 -34 -51 -5 0 -8 -6 -7 -12 2 -24 -59
-138 -74 -138 -12 0 -12 -2 -2 -8 18 -12 -186 -425 -206 -417 -7 3 -10 0 -7
-6 11 -17 -4 -59 -21 -59 -11 0 -14 -6 -10 -16 6 -15 -28 -94 -46 -105 -5 -3
-9 -9 -8 -13 5 -16 -44 -116 -56 -116 -7 0 -11 -6 -8 -14 6 -15 -66 -163 -81
-166 -5 -1 -9 -8 -7 -15 1 -8 -4 -28 -13 -45 l-16 -31 -18 23 c-36 49 -52 79
-45 90 4 6 3 8 -3 5 -6 -4 -13 0 -17 8 -3 8 -1 15 4 15 6 0 10 5 10 11 0 6 -6
9 -14 6 -8 -3 -17 -1 -19 6 -6 18 12 49 25 41 7 -5 9 -2 6 7 -3 8 23 57 58
109 35 52 64 89 64 82 0 -7 5 -10 11 -7 6 4 8 13 5 21 -9 22 46 104 66 98 9
-3 19 0 23 5 3 7 0 8 -9 5 -25 -9 -19 20 9 50 14 15 25 31 25 37 0 5 8 9 18 9
14 0 15 2 2 10 -10 6 -11 10 -2 10 6 0 12 7 12 15 0 8 5 15 10 15 6 0 10 5 10
12 0 6 14 33 31 59 22 34 35 46 47 42 13 -4 14 -2 4 5 -10 7 -4 23 29 75 22
37 46 67 52 67 6 0 8 3 4 6 -4 4 85 153 110 184 2 2 9 -2 14 -10 8 -12 10 -10
6 9 -4 17 7 43 41 93 52 78 67 77 27 -1z m-902 -1175 c25 -52 61 -120 81 -150
20 -31 36 -60 36 -64 0 -5 -16 -23 -35 -42 -34 -33 -34 -33 -62 -15 -46 30
-212 155 -218 165 -5 9 65 160 87 188 6 6 23 12 38 12 25 0 32 -9 73 -94z"/>
<path d="M2697 5154 c-2 -2 -53 -6 -114 -8 -106 -5 -236 -26 -291 -48 -15 -5
-73 -23 -130 -39 -94 -27 -179 -61 -192 -78 -3 -4 -24 -15 -47 -25 -23 -10
-50 -27 -59 -37 -16 -17 -15 -19 9 -28 15 -6 51 -17 81 -26 31 -9 68 -23 84
-30 15 -8 91 -25 168 -39 174 -30 621 -132 689 -156 28 -10 84 -24 125 -30 41
-7 149 -35 240 -62 91 -28 245 -67 342 -88 405 -88 880 -253 1197 -414 29 -15
50 -21 45 -14 -4 7 -21 33 -38 58 -17 25 -45 68 -62 96 -47 78 -147 196 -279
328 -122 123 -169 161 -285 229 -36 21 -85 55 -110 76 -59 49 -144 95 -208
114 -28 9 -71 27 -95 42 -92 53 -318 118 -547 155 -101 17 -183 23 -327 25
-106 1 -194 0 -196 -1z"/>
<path d="M4160 3434 c-223 -8 -434 -12 -470 -9 -35 3 -142 0 -236 -7 l-173
-12 122 -64 c332 -175 676 -410 896 -611 l93 -85 -69 -67 c-125 -119 -312
-229 -448 -264 -73 -19 -208 -35 -292 -35 -57 0 -63 2 -63 20 0 56 -68 126
-152 158 -67 25 -280 38 -449 27 l-115 -7 -49 -105 c-27 -58 -84 -169 -128
-247 -43 -77 -108 -199 -143 -271 -35 -71 -90 -180 -121 -241 -32 -61 -65
-126 -74 -145 -8 -19 -39 -77 -69 -129 -139 -249 -300 -575 -300 -608 0 -6 12
-13 26 -16 14 -4 85 -31 158 -62 171 -70 307 -101 521 -117 509 -37 860 30
1295 248 193 96 347 206 526 376 210 200 389 429 486 624 94 187 218 581 218
690 0 22 5 112 12 200 8 117 9 212 1 352 -11 217 -12 219 -112 326 -76 82
-106 91 -311 93 -96 1 -357 -4 -580 -12z"/>
<path d="M3210 3362 c0 -4 4 -22 10 -40 8 -30 4 -42 -35 -113 -25 -44 -67
-112 -95 -150 -33 -46 -45 -69 -35 -69 8 0 15 -5 15 -11 0 -7 -30 -69 -67
-138 -94 -176 -135 -262 -128 -270 4 -3 135 -6 291 -5 255 0 284 -2 284 -16 0
-26 54 -103 96 -138 34 -28 131 -68 141 -59 2 2 -5 19 -14 38 -25 48 -24 130
2 159 19 21 24 21 155 15 74 -4 139 -11 143 -14 15 -14 -10 -53 -74 -118 l-64
-65 40 7 c66 11 105 25 210 78 73 36 117 67 167 115 37 36 68 70 68 76 0 37
-296 283 -464 386 -59 36 -137 84 -174 108 -109 70 -434 232 -464 232 -5 0 -8
-3 -8 -8z m30 -557 c41 -9 104 -20 140 -25 36 -5 139 -23 230 -38 l165 -29
-162 -1 c-149 -1 -162 0 -157 16 5 16 5 16 -6 0 -9 -15 -29 -18 -148 -19 -75
0 -152 -2 -170 -4 -18 -2 -32 0 -30 3 2 4 14 31 28 60 13 28 26 52 29 52 3 0
40 -7 81 -15z"/>
<path d="M3344 2762 c4 -7 1 -12 -6 -12 -8 0 -6 -5 5 -11 10 -6 21 -8 24 -5 4
3 1 6 -6 6 -7 0 -10 4 -6 9 3 5 0 13 -6 17 -8 4 -9 3 -5 -4z"/>
<path d="M3260 2739 c0 -5 5 -7 10 -4 6 3 10 8 10 11 0 2 -4 4 -10 4 -5 0 -10
-5 -10 -11z"/>
<path d="M1620 4415 c0 -5 5 -17 10 -25 5 -8 10 -10 10 -5 0 6 -5 17 -10 25
-5 8 -10 11 -10 5z"/>
<path d="M1662 4370 c0 -14 2 -19 5 -12 2 6 2 18 0 25 -3 6 -5 1 -5 -13z"/>
<path d="M2015 4360 c-3 -5 1 -10 10 -10 9 0 13 5 10 10 -3 6 -8 10 -10 10 -2
0 -7 -4 -10 -10z"/>
<path d="M1555 4350 c-3 -5 -2 -10 4 -10 5 0 13 5 16 10 3 6 2 10 -4 10 -5 0
-13 -4 -16 -10z"/>
<path d="M1747 4335 c-4 -8 -1 -17 5 -21 7 -4 8 -3 4 4 -4 7 -2 12 3 12 6 0
11 5 11 10 0 15 -17 12 -23 -5z"/>
<path d="M1597 4293 c-4 -3 -7 -11 -7 -17 0 -6 5 -5 12 2 6 6 9 14 7 17 -3 3
-9 2 -12 -2z"/>
<path d="M2060 4285 c0 -8 2 -15 4 -15 2 0 6 7 10 15 3 8 1 15 -4 15 -6 0 -10
-7 -10 -15z"/>
<path d="M2116 4292 c-3 -5 1 -9 9 -9 8 0 12 4 9 9 -3 4 -7 8 -9 8 -2 0 -6 -4
-9 -8z"/>
<path d="M1856 4245 c4 -8 8 -15 10 -15 2 0 4 7 4 15 0 8 -4 15 -10 15 -5 0
-7 -7 -4 -15z"/>
<path d="M2130 4219 c0 -5 5 -7 10 -4 6 3 10 8 10 11 0 2 -4 4 -10 4 -5 0 -10
-5 -10 -11z"/>
<path d="M2497 4209 c7 -7 15 -10 18 -7 3 3 -2 9 -12 12 -14 6 -15 5 -6 -5z"/>
<path d="M2585 4160 c-3 -5 -1 -10 4 -10 6 0 11 5 11 10 0 6 -2 10 -4 10 -3 0
-8 -4 -11 -10z"/>
<path d="M2940 4150 c0 -5 5 -10 10 -10 6 0 10 5 10 10 0 6 -4 10 -10 10 -5 0
-10 -4 -10 -10z"/>
<path d="M3446 4081 c-4 -5 -2 -12 3 -15 5 -4 12 -2 15 3 4 5 2 12 -3 15 -5 4
-12 2 -15 -3z"/>
<path d="M3452 4024 c-7 -8 -8 -14 -3 -14 10 0 25 19 20 25 -2 1 -10 -3 -17
-11z"/>
<path d="M3650 4030 c0 -6 7 -10 15 -10 8 0 15 2 15 4 0 2 -7 6 -15 10 -8 3
-15 1 -15 -4z"/>
<path d="M1690 3570 c0 -5 5 -10 11 -10 5 0 7 5 4 10 -3 6 -8 10 -11 10 -2 0
-4 -4 -4 -10z"/>
<path d="M1630 2975 c-7 -9 -8 -15 -2 -15 5 0 12 7 16 15 3 8 4 15 2 15 -2 0
-9 -7 -16 -15z"/>
<path d="M1400 2901 c0 -6 5 -13 10 -16 6 -3 10 1 10 9 0 9 -4 16 -10 16 -5 0
-10 -4 -10 -9z"/>
<path d="M1327 2809 c4 -13 8 -18 11 -10 2 7 -1 18 -6 23 -8 8 -9 4 -5 -13z"/>
<path d="M1666 2213 c-6 -14 -5 -15 5 -6 7 7 10 15 7 18 -3 3 -9 -2 -12 -12z"/>
<path d="M1548 2153 c7 -3 16 -2 19 1 4 3 -2 6 -13 5 -11 0 -14 -3 -6 -6z"/>
<path d="M1548 2083 c6 -2 18 -2 25 0 6 3 1 5 -13 5 -14 0 -19 -2 -12 -5z"/>
<path d="M1435 1990 c3 -5 8 -10 11 -10 2 0 4 5 4 10 0 6 -5 10 -11 10 -5 0
-7 -4 -4 -10z"/>
<path d="M1309 1950 c-6 -31 -3 -47 8 -47 7 0 13 5 13 11 0 12 -19 44 -21 36z"/>
<path d="M1270 1930 c0 -5 5 -10 10 -10 6 0 10 5 10 10 0 6 -4 10 -10 10 -5 0
-10 -4 -10 -10z"/>
<path d="M1892 1516 c7 -8 15 -12 17 -11 5 6 -10 25 -20 25 -5 0 -4 -6 3 -14z"/>
<path d="M1827 1319 c7 -7 15 -10 18 -7 3 3 -2 9 -12 12 -14 6 -15 5 -6 -5z"/>
<path d="M1766 1205 c4 -8 8 -15 10 -15 2 0 4 7 4 15 0 8 -4 15 -10 15 -5 0
-7 -7 -4 -15z"/>
<path d="M1695 1140 c3 -5 8 -10 11 -10 2 0 4 5 4 10 0 6 -5 10 -11 10 -5 0
-7 -4 -4 -10z"/>
<path d="M1606 1057 c3 -10 9 -15 12 -12 3 3 0 11 -7 18 -10 9 -11 8 -5 -6z"/>
<path d="M1640 1010 c0 -5 5 -10 10 -10 6 0 10 5 10 10 0 6 -4 10 -10 10 -5 0
-10 -4 -10 -10z"/>
<path d="M1540 944 c-9 -10 -9 -14 -1 -14 6 0 11 6 12 13 0 6 4 3 8 -7 6 -17
8 -17 14 -4 8 22 -18 31 -33 12z"/>
<path d="M1540 906 c0 -2 7 -9 15 -16 13 -11 14 -10 9 4 -5 14 -24 23 -24 12z"/>
</g>
</svg>
